<svg width="41" height="37" viewBox="0 0 41 37" fill="none" xmlns="http://www.w3.org/2000/svg">
<path d="M10.9311 5.93109C10.9311 5.93109 -0.100536 8.66644 0.251538 21.4765C0.612639 34.2866 10.9311 35.8303 16.5101 35.3518C22.0801 34.8824 22.0801 34.8824 22.0801 34.8824L23.2718 36.1824L24.2197 33.8081C24.2197 33.8081 32.6424 33.3387 35.134 24.2028C37.6256 15.067 33.3555 13.8844 33.3555 13.8844C33.3555 13.8844 36.5513 14.2364 36.9124 9.25323C39.0429 8.54005 38.4561 7.00537 38.4561 7.00537C40.9477 5.3443 40.5866 3.43949 39.5213 1.66107C35.7207 1.66107 35.8471 3.80059 35.8471 3.80059C35.7207 0.595818 32.3986 0 32.3986 0C32.3986 0 34.2763 2.38327 31.8118 3.56588C29.3473 4.73946 30.6202 2.25688 28.3723 2.37424C26.1154 2.4916 24.5717 2.4916 24.5717 2.4916L24.1023 3.43949L11.0485 4.39641L10.9311 5.93109Z" fill="black"/>
<path fill-rule="evenodd" clip-rule="evenodd" d="M14.4969 21.4313C14.4969 22.8306 14.1719 24.1305 13.6032 25.2229C13.0345 26.3062 12.231 27.1728 11.2651 27.6964C10.6241 28.0485 9.91996 28.2471 9.17067 28.2471C8.43041 28.2471 7.71723 28.0485 7.07628 27.6964C6.43532 27.3534 5.85756 26.8478 5.38813 26.2249C4.43121 24.9882 3.84442 23.3 3.84442 21.4313C3.84442 20.0411 4.16941 18.7321 4.73815 17.6488C5.30688 16.5655 6.11033 15.6988 7.07628 15.1662C7.71723 14.8231 8.43041 14.6245 9.17067 14.6245C9.91996 14.6245 10.6241 14.8231 11.2651 15.1662C11.906 15.5183 12.4838 16.0238 12.9622 16.6467C13.9192 17.8745 14.4969 19.5716 14.4969 21.4313ZM14.0004 21.4313C14.0004 20.1133 13.6935 18.8946 13.1608 17.8835C12.6372 16.8724 11.888 16.078 11.0303 15.5995C10.4526 15.2926 9.82968 15.1211 9.17067 15.1211C8.51166 15.1211 7.88876 15.2926 7.311 15.5995C6.74226 15.9155 6.21866 16.3759 5.77631 16.9446C4.89162 18.0821 4.34094 19.6709 4.34094 21.4313C4.34094 22.7584 4.64787 23.9771 5.1805 24.9882C5.70409 25.9992 6.45338 26.7937 7.311 27.2631C7.88876 27.5791 8.51166 27.7506 9.17067 27.7506C9.82968 27.7506 10.4526 27.5791 11.0303 27.2631C11.6081 26.9562 12.1227 26.4958 12.565 25.927C13.4497 24.7896 14.0004 23.2007 14.0004 21.4313Z" fill="white"/>
<path d="M11.0125 14.7509C12.827 15.3829 13.82 16.5294 14.4519 18.7501C14.2894 16.7731 13.9735 16.4571 13.9735 16.4571C13.9735 16.4571 14.5693 16.9627 15.3998 18.4342C14.9665 16.1773 13.3054 14.7148 11.0125 14.7509Z" fill="white"/>
<path d="M12.827 14.435C15.3638 15.0308 16.3839 18.037 16.6276 19.021C16.5825 17.1252 16.2304 16.4571 16.2304 16.4571C17.6116 17.9196 17.7741 18.6689 17.7741 18.6689C17.6116 16.2134 15.4811 14.5162 12.827 14.435Z" fill="white"/>
<path d="M10.7687 28.1568C13.0708 27.8048 14.2895 26.6583 15.3186 25.3493C14.3707 27.3624 12.9083 28.2381 10.7687 28.1568Z" fill="#eee"/>
<path d="M13.4227 28.1478C15.2914 27.4347 16.3566 25.5118 16.3566 25.5118C16.149 26.4236 15.8511 26.8117 15.8511 26.8117C16.6545 26.3694 17.0066 25.9271 17.5483 25.4215C16.6274 26.9652 15.2011 28.0576 13.4227 28.1478Z" fill="#eee"/>
<path d="M5.38832 18.8043C4.49459 20.4383 4.64806 24.1757 6.3001 25.927C5.97511 24.9159 6.12858 24.266 6.12858 24.266C6.12858 24.266 6.63412 25.5118 7.22091 25.8367C6.98619 25.0604 6.77856 24.2028 6.77856 24.2028C7.2841 25.2138 8.14172 25.8006 8.14172 25.8006C6.88689 23.8507 6.67023 21.0883 7.51882 18.8675C6.71537 19.4272 6.33621 20.5556 6.33621 20.5556C6.33621 19.9057 6.27302 19.4001 6.42649 18.8043C6.42649 18.8043 5.62304 20.023 5.55984 20.6459C5.4786 19.698 5.38832 18.8043 5.38832 18.8043Z" fill="#eee"/>
<path d="M8.67422 18.6237C8.62005 20.2036 10.9311 20.9709 10.9311 20.9709C10.9311 20.9709 8.85477 19.6078 8.67422 18.6237Z" fill="#eee"/>
<path d="M10.3713 16.6377C10.0102 17.6759 10.4525 19.6348 11.4907 20.6459C10.5428 18.8314 10.3713 16.6377 10.3713 16.6377Z" fill="#eee"/>
<path d="M8.14172 21.5035C8.74657 22.1896 10.3083 22.0362 10.7868 21.8015C9.1167 21.7383 8.14172 21.5035 8.14172 21.5035Z" fill="#eee"/>
<path fill-rule="evenodd" clip-rule="evenodd" d="M11.9693 21.4494C11.9693 21.8015 11.7345 22.0994 11.4457 22.0994C11.1658 22.0994 10.9311 21.8015 10.9311 21.4494C10.9311 21.0883 11.1658 20.7904 11.4457 20.7904C11.7345 20.7904 11.9693 21.0883 11.9693 21.4494ZM11.6352 21.4494C11.6352 21.2598 11.5359 21.1244 11.4457 21.1244C11.3644 21.1244 11.2561 21.2598 11.2561 21.4494C11.2561 21.6299 11.3644 21.7654 11.4457 21.7654C11.5359 21.7654 11.6352 21.6299 11.6352 21.4494Z" fill="white"/>
<path d="M8.71045 24.3201C9.54098 24.1757 11.2021 22.2167 11.2021 22.2167C11.0757 23.3181 9.17988 24.4375 8.71045 24.3201Z" fill="#eee"/>
<path d="M11.6712 22.3341C11.6983 23.3181 10.958 25.3041 10.2809 26.0986C11.3733 25.5118 12.1496 23.4625 11.6712 22.3341Z" fill="#eee"/>
<path d="M11.8249 20.6459C11.2562 18.9578 12.3214 16.8453 12.3214 16.8453C11.9964 18.362 11.8791 19.3099 11.8249 20.6459Z" fill="#eee"/>
<path d="M12.0324 20.7904C11.9602 19.3369 13.3053 18.4793 13.3053 18.4793L12.0324 20.7904Z" fill="#eee"/>
<path d="M12.3572 20.9709C12.6822 20.0772 13.6933 20.0772 13.6933 20.0772L12.3572 20.9709Z" fill="#eee"/>
<path d="M12.0594 22.1896C12.5921 22.9028 12.8268 25.0604 12.8268 25.0604C13.1518 23.6972 12.7726 22.5688 12.0594 22.1896Z" fill="#eee"/>
<path d="M12.5288 21.4133L13.8378 21.3862C13.5399 20.9709 12.8267 21.1154 12.5288 21.4133Z" fill="#eee"/>
<path d="M12.5288 21.982C12.5288 21.982 13.6031 22.8667 13.567 23.4896C13.7475 22.307 12.5288 21.982 12.5288 21.982Z" fill="#eee"/>
<path d="M5.49649 14.4801C2.65282 17.6759 2.36393 20.2848 2.82434 23.4354C3.29377 26.577 4.51249 27.9402 7.52769 31.4429C4.21458 29.9172 2.95073 26.9923 2.83337 26.7124C2.9417 27.0103 4.12431 30.2151 6.89576 33.1039C5.44233 32.3908 1.60562 29.4839 1.14522 22.4876C0.675787 15.4822 3.93473 9.29832 11.4186 6.64422C11.4366 6.6382 11.4517 6.63519 11.4637 6.63519L11.5811 8.90111L20.3017 8.18793L20.3378 7.57406L23.2085 8.25112L17.458 8.72056L23.3891 9.7858C19.9586 9.91219 18.9114 10.0566 15.2011 10.2011C12.0053 10.3365 8.41239 11.1941 5.49649 14.4801Z" fill="white"/>
<path d="M23.6147 6.2109L20.3919 6.68936L20.437 5.85883L23.6147 6.2109Z" fill="white"/>
<path d="M24.2558 4.49565L20.4733 5.27202L20.5184 4.61301C22.8385 4.38732 24.2558 4.49565 24.2558 4.49565Z" fill="white"/>
<path fill-rule="evenodd" clip-rule="evenodd" d="M31.2159 8.78375C31.2159 11.817 29.9792 14.2815 28.4445 14.2815C26.9188 14.2815 25.6821 11.817 25.6821 8.78375C25.6821 5.7505 26.9188 3.28598 28.4445 3.28598C29.9792 3.28598 31.2159 5.7505 31.2159 8.78375ZM30.3944 8.78375C30.3944 5.93105 29.2389 4.10749 28.4445 4.10749C27.6591 4.10749 26.5036 5.93105 26.5036 8.78375C26.5036 11.6365 27.6591 13.451 28.4445 13.451C29.2389 13.451 30.3944 11.6365 30.3944 8.78375Z" fill="#eee"/>
<path d="M26.4045 4.2158C26.6212 3.93294 26.8559 3.66211 27.1086 3.40332L26.0524 3.50262C26.0524 3.50262 23.2088 5.22688 24.2559 10.4448C24.2379 9.55107 24.4545 8.27819 24.942 6.96017C24.8788 8.00737 24.933 9.18997 25.2851 10.2643C25.0774 8.77471 25.0865 6.12964 26.4045 4.2158Z" fill="white"/>
<path d="M11.9965 5.2269L12.0597 8.30529L18.0449 7.65531L17.9276 4.45053L11.9965 5.2269Z" fill="white"/>
<path d="M18.7581 4.39636L20.1213 4.98315L19.9498 6.22895L18.7581 4.39636Z" fill="#eee"/>
<path d="M27.2978 14.4801C25.8805 14.0017 25.3479 13.1711 24.2194 11.3927C24.9868 13.2885 25.8805 14.4169 25.8805 14.4169L27.2978 14.4801Z" fill="#eee"/>
<path d="M31.0985 12.8191C36.0185 16.6738 36.4969 28.0575 26.8284 32.156C34.89 26.9923 34.4206 18.2717 31.0985 12.8191Z" fill="#eee"/>
<path d="M28.6072 26.3965C29.5551 24.8528 28.6072 23.0743 28.6072 23.0743L25.0504 22.957C25.0504 22.957 27.7135 23.2549 28.0746 23.4896C28.4267 23.7333 28.4267 24.4375 28.4267 24.4375L25.2851 24.266L28.4267 24.9159L28.6072 26.3965Z" fill="#eee"/>
<path d="M28.4897 15.1843C28.0744 16.8453 26.4675 17.0891 26.4675 17.0891L27.7765 22.6591H26.5307C26.5307 22.6591 26.8828 22.0091 26.8286 21.2959C26.7654 20.5827 25.9981 17.3238 25.9981 17.3238L24.987 16.9627C24.987 16.9627 27.4244 17.0259 28.4897 15.1843Z" fill="#eee"/>
<path d="M27.6594 27.3444C27.6594 27.3444 23.5609 32.6255 23.272 33.1581C22.9741 33.6907 23.1456 34.4039 22.9109 34.5844C22.6762 34.106 22.6762 34.106 22.6762 34.106L19.2367 34.4039L22.4956 32.9775L27.6594 27.3444Z" fill="#eee"/>
<path fill-rule="evenodd" clip-rule="evenodd" d="M23.4432 26.9291C22.378 28.2923 21.0148 30.495 19.5885 31.9123C22.0801 27.6423 21.8453 26.7576 21.8453 26.7576C21.8453 26.7576 19.8322 30.5491 17.8732 31.3255C20.0669 28.3555 20.1843 26.4597 20.1843 26.4597C18.3697 29.3756 15.9865 30.513 15.9142 30.5491C19.4169 26.577 19.5885 23.9681 19.5885 21.7112C19.5885 21.7112 19.8322 18.9849 19.4169 17.7391C20.6627 18.8675 20.6627 19.9328 20.6627 19.9328L20.7169 17.6759C20.7169 17.6759 21.7821 18.9849 21.8453 19.9328C22.1342 18.7321 21.9266 17.8113 21.9085 17.7391C21.9988 17.8925 24.2196 21.3952 24.5175 23.0743C24.8064 24.7986 24.5175 25.5659 23.4432 26.9291ZM23.4161 22.4876C23.046 24.8347 23.1273 25.8639 23.1273 25.8639C24.0029 24.9069 24.4453 23.291 23.4161 22.4876Z" fill="white"/>
<path d="M8.02423 33.456C12.5922 35.5955 18.4059 34.8192 21.4933 31.4429C17.3948 34.1692 11.1116 34.5845 8.02423 33.456Z" fill="#eee"/>
<path d="M24.3911 13.5864C24.3911 13.5864 17.4489 12.9906 16.8802 12.9906C16.3115 12.9906 15.9142 11.6906 15.9142 11.6906C15.9142 11.6906 16.5371 12.6385 17.3948 12.6385C18.2434 12.6385 23.8856 12.6385 23.8856 12.6385L24.3911 13.5864Z" fill="#eee"/>
<path d="M36.0549 9.76776C35.9466 9.89414 35.9466 10.6073 35.8653 10.815C35.7389 11.149 35.5584 11.4649 35.3237 11.7358C34.9355 12.2052 34.2945 12.6746 33.6987 12.8281C32.3626 13.1621 30.2231 13.0267 29.0947 12.1962C27.9211 11.3205 27.235 9.92122 27.1447 8.46779C27.0906 7.56504 27.2711 6.60812 27.8308 5.88591C28.3544 5.21788 29.1488 4.82969 29.9433 4.5047C30.7287 4.18874 32.5703 4.03527 33.2293 3.50264C33.8973 2.97002 34.5383 2.07629 33.1932 1.14646C33.9244 1.1284 34.6286 1.64297 34.8362 2.33809C35.0438 3.03321 34.7279 3.85472 34.114 4.23388C33.6084 4.54984 32.9765 4.57692 32.4439 4.83872C31.9113 5.10052 31.514 5.84078 31.9203 6.2741C32.2363 6.56298 32.7599 6.29215 33.0126 5.94008C33.2564 5.58801 33.4098 5.13663 33.78 4.91094C34.4751 4.49567 35.4952 5.14566 36.1632 4.67622C36.6056 4.36026 36.6417 3.71931 36.8764 3.22279C37.2465 2.45545 38.2396 2.04018 39.052 2.32004C38.366 2.66308 36.9125 3.73736 37.6257 4.81164C38.6909 5.57898 39.1152 4.19777 39.1604 3.7825C39.6027 4.79358 38.9437 6.12063 37.8694 6.38243C37.0931 6.57201 36.2896 6.25604 35.4952 6.15674C34.7008 6.05744 33.7077 6.32826 33.5272 7.10463C33.3376 7.90808 34.0147 8.18794 34.8362 8.12475C35.6577 8.07058 36.5604 7.95322 37.1292 7.3574C37.2917 8.02544 36.5153 9.23513 35.8473 9.37055C35.1702 9.51499 34.5654 9.43374 33.8883 9.49693C33.2022 9.5511 32.48 9.24416 32.3897 9.92123C32.2904 10.7427 33.2834 11.3476 34.0869 11.1851C34.8903 11.0226 35.5042 10.3816 36.0549 9.76776Z" fill="#eee"/>
</svg>
